<?xml version="1.0" encoding="utf-8"?>
<!-- Generator: Adobe Illustrator 24.0.2, SVG Export Plug-In . SVG Version: 6.00 Build 0)  -->
<svg version="1.1" id="Layer_1" xmlns="http://www.w3.org/2000/svg" xmlns:xlink="http://www.w3.org/1999/xlink" x="0px" y="0px"
	 viewBox="0 0 560 288" style="enable-background:new 0 0 560 288;" xml:space="preserve">
<style type="text/css">
	.st0{fill:#0583AF;}
	.st1{fill:#0382AE;}
	.st2{fill:#FDFEFE;}
</style>
<path class="st0" d="M293.31,180.73c0-7.2-0.02-14.39,0.03-21.59c0.01-1.02-0.27-1.3-1.26-1.24c-1.31,0.09-2.64-0.01-3.96,0.03
	c-0.63,0.02-0.84-0.19-0.82-0.82c0.02-0.58,0.13-0.86,0.8-0.86c7.04,0.02,14.08,0.02,21.12,0c0.73,0,0.84,0.28,0.86,0.91
	c0.02,0.7-0.31,0.76-0.87,0.75c-1.68-0.02-3.36,0.02-5.04-0.02c-0.65-0.02-0.89,0.14-0.89,0.85c0.03,6.72,0.03,13.43,0,20.15
	c0,0.7,0.21,0.86,0.88,0.86c6.72-0.02,13.44-0.02,20.16,0c0.69,0,0.87-0.21,0.86-0.88c-0.02-6.68-0.02-13.35,0-20.03
	c0-0.72-0.16-0.98-0.92-0.95c-1.68,0.06-3.36,0.01-5.04,0.03c-0.54,0.01-0.9-0.03-0.87-0.75c0.02-0.62,0.12-0.92,0.85-0.92
	c7.04,0.03,14.08,0.02,21.12,0c0.7,0,0.87,0.24,0.88,0.9c0.01,0.69-0.29,0.78-0.86,0.77c-1.4-0.03-2.8,0.04-4.2-0.03
	c-0.82-0.04-0.97,0.27-0.97,1.02c0.02,14.59,0.02,29.19-0.01,43.78c0,0.94,0.29,1.14,1.15,1.1c1.36-0.07,2.72,0.01,4.08-0.03
	c0.65-0.02,0.81,0.24,0.81,0.84c0,0.62-0.29,0.72-0.81,0.72c-7.08-0.01-14.16-0.01-21.24,0c-0.54,0-0.79-0.13-0.79-0.73
	c0-0.61,0.18-0.84,0.82-0.83c1.68,0.04,3.36-0.01,5.04,0.03c0.68,0.02,0.98-0.11,0.98-0.9c-0.03-6.8-0.03-13.59,0-20.39
	c0-0.73-0.21-0.95-0.94-0.95c-6.68,0.03-13.36,0.03-20.04,0c-0.76,0-0.92,0.25-0.92,0.96c0.02,6.76,0.03,13.51,0,20.27
	c0,0.75,0.16,1.05,0.98,1.02c1.6-0.07,3.2-0.02,4.8-0.02c0.52,0,1.02-0.11,1.02,0.74c0,0.77-0.37,0.81-0.96,0.81
	c-6.96-0.01-13.92-0.01-20.88,0c-0.63,0-0.95-0.12-0.94-0.85c0.01-0.74,0.43-0.71,0.94-0.71c1.32,0.01,2.64-0.05,3.96,0.02
	c0.89,0.05,1.15-0.21,1.14-1.12c-0.04-5.8-0.02-11.59-0.02-17.39C293.31,183.77,293.31,182.25,293.31,180.73z"/>
<path class="st1" d="M124.3,119.07c0-7.23-0.02-14.47,0.03-21.7c0.01-1.03-0.3-1.29-1.27-1.23c-1.31,0.08-2.64,0-3.96,0.03
	c-0.64,0.02-0.81-0.24-0.81-0.85c0-0.58,0.2-0.75,0.76-0.74c8.83,0.15,17.67-0.34,26.49,0.28c3.8,0.27,7.48,1.24,10.9,2.99
	c5.81,2.96,9.22,7.76,10.46,14.08c1.06,5.42,0.84,10.84-0.98,16.08c-2.86,8.23-8.86,12.93-17.23,14.79
	c-2.35,0.52-4.73,0.77-7.13,0.77c-7.4,0-14.79,0.01-22.19-0.01c-0.4,0-1.02,0.29-1.06-0.54c-0.03-0.6,0.03-0.98,0.8-0.94
	c1.24,0.06,2.48-0.06,3.72,0.04c1.15,0.09,1.54-0.18,1.52-1.45C124.26,133.46,124.3,126.27,124.3,119.07z M134.31,119.14
	c0,7.24,0.02,14.47-0.02,21.71c-0.01,0.95,0.16,1.35,1.21,1.27c1.43-0.1,2.88-0.05,4.32-0.02c7.02,0.12,11.89-3.18,14.43-9.59
	c3.38-8.55,3.51-17.33,0.65-26.04c-1.72-5.25-5.38-8.7-10.91-9.9c-2.76-0.59-5.57-0.34-8.36-0.44c-1.02-0.03-1.35,0.2-1.34,1.29
	C134.33,104.67,134.31,111.9,134.31,119.14z"/>
<path class="st0" d="M432.75,189.29c0.34-0.4,0.21-0.77,0.21-1.1c0.01-8.23,0-16.47,0.02-24.7c0-0.81-0.21-1.3-0.94-1.72
	c-2.04-1.18-4.02-2.45-6.05-3.65c-0.58-0.35-0.92-0.75-0.76-1.43c0.18-0.73,0.8-0.38,1.2-0.39c4.72-0.03,9.44-0.03,14.15,0
	c0.38,0,0.95-0.29,1.1,0.37c0.12,0.57-0.01,1.04-0.58,1.42c-1.76,1.17-3.46,2.45-5.22,3.62c-0.67,0.45-0.92,0.94-0.92,1.75
	c0.03,13.39,0.03,26.78,0,40.17c0,0.55,0.47,1.35-0.39,1.67c-0.99,0.38-2.47-0.05-2.99-0.77c-4.85-6.65-9.7-13.3-14.54-19.95
	c-5.72-7.84-11.43-15.69-17.15-23.53c-0.14-0.19-0.28-0.36-0.62-0.79c0,0.6,0,0.93,0,1.26c0,12.19,0.01,24.38-0.02,36.58
	c0,0.87,0.24,1.35,1.02,1.77c2.29,1.22,4.52,2.54,6.79,3.79c0.5,0.28,0.85,0.57,0.74,1.2c-0.14,0.76-0.75,0.46-1.16,0.46
	c-4.88,0.02-9.76,0.02-14.63,0c-0.38,0-0.95,0.29-1.11-0.33c-0.16-0.59,0.07-1.03,0.6-1.41c1.69-1.2,3.34-2.48,5.02-3.69
	c0.57-0.41,0.81-0.86,0.81-1.59c-0.02-12.87-0.03-25.74,0-38.61c0-0.83-0.28-1.1-1.04-1.2c-1.66-0.21-3.31-0.52-4.98-0.71
	c-0.67-0.08-0.74-0.39-0.73-0.94c0.01-0.63,0.43-0.55,0.83-0.55c5.56,0,11.11,0.02,16.67-0.02c0.77-0.01,1.03,0.48,1.37,0.95
	c7.53,10.37,15.06,20.75,22.6,31.13C432.27,188.65,432.5,188.95,432.75,189.29z"/>
<path class="st0" d="M351.23,180.89c0-7.24-0.03-14.47,0.03-21.71c0.01-1.11-0.32-1.35-1.34-1.28c-1.31,0.09-2.64-0.01-3.96,0.03
	c-0.63,0.02-0.72-0.25-0.71-0.78c0.01-0.53,0.01-0.91,0.74-0.89c2.36,0.04,4.72,0.01,7.08,0.01c9.76,0,19.51,0.01,29.27-0.02
	c0.96,0,1.27,0.23,1.36,1.23c0.3,3.35,0.24,6.71,0.23,10.06c0,0.39,0.34,1.03-0.42,1.16c-0.58,0.1-1.01-0.03-1.37-0.64
	c-1.37-2.34-2.87-4.61-4.22-6.96c-1.31-2.29-3.21-3.27-5.83-3.2c-3.28,0.09-6.56,0.04-9.84,0.01c-0.75-0.01-1.03,0.15-1.03,0.97
	c0.03,6.72,0.03,13.43,0,20.15c0,0.82,0.28,0.99,1.03,0.98c3-0.04,6-0.04,9,0c0.71,0.01,1.06-0.25,1.39-0.84
	c1.11-1.98,2.3-3.93,3.42-5.9c0.29-0.5,0.6-0.82,1.21-0.71c0.8,0.14,0.41,0.77,0.41,1.15c0.03,4.76,0.03,9.51,0.01,14.27
	c0,0.35,0.25,0.86-0.34,1c-0.57,0.14-0.94-0.08-1.25-0.62c-1.13-2.02-2.34-3.99-3.49-6.01c-0.31-0.54-0.65-0.8-1.31-0.79
	c-3.04,0.03-6.08,0.03-9.12,0c-0.72-0.01-0.96,0.2-0.96,0.95c0.02,6.8,0.02,13.59,0,20.39c0,0.65,0.15,0.91,0.86,0.9
	c4.2-0.03,8.4-0.01,12.59-0.02c1.79,0,3.13-0.83,4.12-2.27c1.32-1.91,2.29-4.02,3.44-6.03c0.71-1.25,1.45-2.48,2.08-3.77
	c0.32-0.64,0.76-0.75,1.35-0.67c0.71,0.1,0.4,0.68,0.41,1.05c0.08,4-0.06,7.99-0.52,11.97c-0.11,0.96-0.4,1.31-1.46,1.3
	c-12.55-0.05-25.11-0.03-37.66-0.05c-0.41,0-1.11,0.38-1.18-0.53c-0.05-0.63-0.01-1.06,0.85-1.02c1.36,0.08,2.72-0.03,4.08,0.04
	c0.86,0.04,1.06-0.26,1.05-1.08C351.22,195.44,351.23,188.17,351.23,180.89z"/>
<path class="st1" d="M293.06,133.85c0-1.88,0-3.75,0-5.63c0-0.43-0.05-0.87,0.59-0.99c0.62-0.12,0.83,0.19,1.05,0.68
	c1.16,2.63,2.37,5.23,3.76,7.74c0.7,1.26,1.52,2.43,2.42,3.56c4.31,5.43,14.42,4.74,18.07,0.39c1.57-1.87,2.37-3.96,2.32-6.37
	c-0.04-2.3-1.32-3.87-3.17-5.05c-2.34-1.49-4.97-2.35-7.52-3.38c-3-1.21-6.05-2.3-8.97-3.65c-4.03-1.86-7.19-4.62-8.17-9.23
	c-1.55-7.33,2.21-13.95,9.54-16.88c3.86-1.55,7.87-1.63,11.92-1.34c3.23,0.23,6.4,0.87,9.52,1.76c0.68,0.19,0.96,0.44,1,1.19
	c0.18,3.35,0.21,6.71,0.07,10.06c-0.02,0.49,0.19,1.15-0.65,1.33c-0.85,0.18-0.9-0.53-1.13-0.96c-1.34-2.5-2.71-4.97-4.03-7.48
	c-3.57-6.8-15.31-4.87-18.05-0.43c-1.12,1.8-1.71,3.7-1.63,5.78c0.07,1.92,1.07,3.38,2.63,4.48c1.61,1.14,3.41,1.9,5.22,2.65
	c4.27,1.76,8.7,3.18,12.82,5.3c3.51,1.81,6.45,4.23,7.38,8.32c1.48,6.52-0.86,14.86-10.59,17.82c-3.74,1.14-7.57,1.14-11.41,0.95
	c-4-0.2-7.92-0.9-11.75-2.14c-0.73-0.24-1.06-0.57-1.12-1.41C293.01,138.56,292.96,136.21,293.06,133.85z"/>
<path class="st1" d="M252.86,178.45c-0.03,5.37,0.35,9.08,1.65,12.66c2.98,8.2,9.7,11.31,17.72,10.35c3.41-0.41,6.51-1.56,9.01-4.02
	c0.21-0.21,0.4-0.55,0.77-0.17c0.3,0.31,0.14,0.56-0.04,0.85c-1.02,1.65-2.33,3.04-3.87,4.21c-8.16,6.19-22.49,5.14-29.63-2.18
	c-3.29-3.38-5.05-7.53-5.75-12.13c-1.08-7.04-0.48-13.9,3.04-20.22c4.55-8.16,11.64-12.25,20.96-12.44
	c4.37-0.09,8.68,0.42,12.86,1.81c0.78,0.26,1.11,0.61,1.22,1.48c0.51,4.09,0.76,8.19,0.84,12.3c0.01,0.5,0.24,1.09-0.6,1.33
	c-0.89,0.25-1-0.4-1.29-0.88c-2.06-3.46-4.03-6.99-6.38-10.27c-3.65-5.12-9.88-5.61-14.41-1.18c-2.91,2.85-4.24,6.51-5.11,10.37
	C253.13,173.5,252.86,176.76,252.86,178.45z"/>
<path class="st1" d="M212.09,180.92c0-7.28-0.02-14.55,0.02-21.83c0-0.92-0.2-1.24-1.17-1.18c-1.99,0.12-4-0.09-5.99,0.12
	c-1.59,0.17-2.75,0.97-3.61,2.28c-1.39,2.1-2.59,4.31-3.76,6.53c-0.34,0.65-0.72,1.04-1.47,0.87c-0.84-0.19-0.51-0.89-0.52-1.38
	c-0.1-3.04,0.03-6.07,0.31-9.09c0.07-0.76,0.34-0.98,1.1-0.97c13.36,0.02,26.71,0.03,40.07-0.01c0.88,0,1.07,0.37,1.13,1.1
	c0.26,3.15,0.39,6.3,0.26,9.46c-0.01,0.35,0.18,0.87-0.47,0.9c-0.51,0.02-0.99,0.09-1.32-0.53c-0.87-1.62-1.82-3.19-2.74-4.78
	c-0.26-0.45-0.56-0.87-0.8-1.34c-1.18-2.35-3.13-3.27-5.69-3.16c-1.48,0.06-2.96,0.06-4.44-0.01c-0.86-0.04-1.05,0.25-1.05,1.07
	c0.03,7.72,0.02,15.43,0.02,23.15c0,6.8,0.03,13.59-0.03,20.39c-0.01,1.11,0.33,1.35,1.34,1.29c1.47-0.08,2.96,0,4.44-0.03
	c0.63-0.02,0.84,0.2,0.84,0.82c0,0.6-0.27,0.73-0.81,0.73c-7.16-0.01-14.32-0.01-21.47,0c-0.55,0-0.89-0.08-0.89-0.77
	c0-0.67,0.29-0.79,0.87-0.78c1.6,0.03,3.2-0.04,4.8,0.03c0.85,0.04,1.06-0.22,1.06-1.06C212.08,195.47,212.09,188.19,212.09,180.92z
	"/>
<path class="st0" d="M185.66,180.83c0,7.23,0.02,14.47-0.02,21.7c-0.01,0.96,0.17,1.35,1.22,1.27c1.31-0.1,2.64,0,3.96-0.03
	c0.58-0.01,0.87,0.11,0.87,0.78c0,0.69-0.31,0.78-0.88,0.77c-6.76-0.01-13.51-0.01-20.27,0c-0.53,0-0.9-0.02-0.91-0.74
	c-0.01-0.77,0.37-0.82,0.96-0.81c1.44,0.03,2.88-0.01,4.32,0.02c0.57,0.01,0.82-0.18,0.75-0.75c-0.02-0.16,0-0.32,0-0.48
	c0-14.47-0.01-28.93,0.02-43.4c0-0.97-0.19-1.33-1.23-1.26c-1.35,0.1-2.72,0-4.08,0.03c-0.6,0.02-0.75-0.22-0.73-0.77
	c0.01-0.54,0.03-0.9,0.75-0.9c6.84,0.02,13.67,0.02,20.51,0c0.68,0,0.76,0.3,0.78,0.87c0.03,0.65-0.22,0.82-0.83,0.8
	c-1.36-0.04-2.72,0.04-4.08-0.03c-0.88-0.05-1.14,0.19-1.13,1.11C185.68,166.29,185.66,173.56,185.66,180.83z"/>
<path class="st0" d="M124.3,180.87c0-7.27-0.01-14.55,0.02-21.82c0-0.85-0.14-1.21-1.09-1.14c-1.31,0.09-2.64,0.02-3.96,0.03
	c-0.54,0-1,0.08-1-0.76c0-0.79,0.31-0.91,1-0.91c5.96,0.02,11.91,0.01,17.87,0.01c0.72,0,1.44,0.02,2.16-0.01
	c0.59-0.03,0.95,0.04,0.98,0.8c0.02,0.85-0.39,0.87-1.03,0.86c-1.4-0.03-2.8,0.01-4.2-0.02c-0.58-0.01-0.76,0.18-0.75,0.75
	c0.03,1.36,0.01,2.72,0.01,4.08c0,13.27,0.01,26.53-0.02,39.8c0,0.97,0.19,1.35,1.22,1.27c1.19-0.1,2.4-0.01,3.6-0.03
	c0.56-0.01,0.99-0.02,0.99,0.78c0,0.82-0.46,0.77-1.01,0.77c-6.39,0-12.79,0-19.18,0c-0.28,0-0.56-0.02-0.84,0
	c-0.55,0.04-0.78-0.15-0.78-0.74c-0.01-0.64,0.22-0.83,0.84-0.81c1.36,0.04,2.72-0.05,4.08,0.03c0.9,0.05,1.13-0.22,1.13-1.12
	C124.28,195.41,124.3,188.14,124.3,180.87z"/>
<path class="st1" d="M259.61,119.16c0-7.27-0.02-14.55,0.02-21.82c0-0.92-0.2-1.26-1.17-1.2c-1.35,0.09-2.72-0.01-4.08,0.04
	c-0.67,0.02-0.79-0.26-0.79-0.85c0-0.56,0.14-0.76,0.74-0.75c6.83,0.02,13.67,0.02,20.5,0c0.57,0,0.76,0.17,0.76,0.75
	c0,0.6-0.17,0.87-0.82,0.85c-1.36-0.04-2.72,0.04-4.08-0.03c-0.9-0.05-1.15,0.24-1.14,1.14c0.04,6.11,0.02,12.23,0.02,18.34
	c0,8.43,0.01,16.86-0.02,25.3c0,0.92,0.21,1.25,1.18,1.19c1.35-0.09,2.72,0,4.08-0.03c0.55-0.01,0.79,0.13,0.78,0.73
	c-0.01,0.56-0.17,0.77-0.76,0.77c-6.83-0.02-13.67-0.02-20.5,0c-0.58,0-0.74-0.19-0.75-0.76c0-0.57,0.17-0.76,0.75-0.75
	c1.44,0.04,2.88-0.04,4.32,0.03c0.82,0.04,0.97-0.26,0.97-1.01C259.6,133.78,259.61,126.47,259.61,119.16z"/>
<path class="st1" d="M178.94,119.05c0-7.23-0.02-14.47,0.02-21.7c0-0.93-0.23-1.27-1.19-1.21c-1.35,0.08-2.72-0.01-4.08,0.03
	c-0.7,0.02-0.75-0.33-0.77-0.88c-0.02-0.61,0.24-0.72,0.78-0.72c6.79,0.01,13.59,0.01,20.38,0c0.52,0,0.81,0.08,0.79,0.71
	c-0.02,0.54-0.05,0.91-0.76,0.89c-1.44-0.04-2.88,0.02-4.32-0.03c-0.73-0.02-0.96,0.22-0.95,0.95c0.02,14.7,0.02,29.41,0,44.11
	c0,0.66,0.16,0.91,0.86,0.89c1.4-0.05,2.8,0,4.2-0.02c0.55-0.01,1-0.06,0.98,0.77c-0.02,0.73-0.39,0.72-0.91,0.72
	c-6.71-0.01-13.43-0.01-20.14,0c-0.51,0-0.9,0.03-0.92-0.71c-0.02-0.81,0.41-0.79,0.97-0.78c1.32,0.02,2.64-0.05,3.96,0.03
	c0.91,0.06,1.13-0.23,1.12-1.13C178.92,133.67,178.94,126.36,178.94,119.05z"/>
<path class="st1" d="M156.76,156.28c2.64,0,5.28-0.01,7.91,0.01c0.35,0,0.86-0.23,0.98,0.37c0.12,0.58-0.08,0.96-0.66,1.22
	c-2.24,1.04-4.46,2.13-6.7,3.17c-0.88,0.41-1.63,0.94-2.29,1.67c-3.68,4.05-7.39,8.07-11.13,12.06c-0.57,0.61-0.63,0.98-0.16,1.68
	c5.91,8.82,11.79,17.66,17.64,26.52c0.41,0.62,0.85,0.86,1.56,0.8c0.59-0.05,1.2,0.02,1.8-0.02c0.58-0.04,0.76,0.2,0.76,0.77
	c0,0.55-0.14,0.79-0.74,0.79c-4.36-0.02-8.71-0.02-13.07,0c-0.59,0-0.83-0.33-1.11-0.74c-4.94-7.36-9.88-14.72-14.86-22.04
	c-0.5-0.74-0.36-1.12,0.17-1.7c5.68-6.23,11.32-12.49,17-18.7c0.68-0.74,0.62-1.04-0.26-1.48c-1.68-0.84-3.29-1.81-4.95-2.67
	c-0.57-0.3-0.9-0.65-0.76-1.3c0.17-0.74,0.78-0.4,1.19-0.4C151.65,156.26,154.21,156.28,156.76,156.28z"/>
<path class="st0" d="M408.62,127.04c0,0.19,0.01,0.38,0,0.56c-0.16,2.38,0.61,3.27,2.98,3.47c2.1,0.18,4.13-0.07,6.15-0.69
	c0.75-0.23,0.82-0.49,0.46-1.15c-1.52-2.77-2.58-5.75-3.76-8.67c-0.31-0.76-0.25-1.22,0.46-1.68c0.52-0.34,0.92-0.85,1.51-1.4
	c0.31,1.15,0.57,2.17,0.84,3.19c0.73,2.66,1.62,5.25,2.8,7.75c1.58,3.33,4.12,3.1,7.35,2.03c0.59-0.2,0.4-0.7,0.38-1.12
	c-0.24-3.95-0.56-7.89-0.73-11.84c-0.13-2.95-0.09-5.91-0.1-8.87c-0.02-6.27,0.17-12.55-0.56-18.8c-0.11-0.92,0.13-1.38,1.06-1.6
	c0.56-0.13,1.06-0.51,1.62-0.79c0.26,0.29,0.14,0.62,0.14,0.91c0.01,13.35,0,26.71,0.01,40.06c0,1.35-0.52,2.57-0.93,3.81
	c-0.11,0.33-0.35,0.54-0.63,0.69c-2.17,1.16-5.21,1.64-7.32-0.53c-0.48-0.5-0.8-0.51-1.4-0.21c-2.58,1.3-5.29,2.06-8.21,1.55
	c-2.12-0.37-3.15-1.81-2.91-3.95C407.93,128.84,407.98,127.9,408.62,127.04z"/>
<path class="st0" d="M360.36,126.87c0.4,0.29,0.2,0.57,0.17,0.81c-0.27,1.93,0.36,2.95,2.22,3.28c2.45,0.44,4.85,0.08,7.2-0.66
	c0.73-0.23,0.4-0.6,0.2-0.98c-1.49-2.79-2.58-5.74-3.75-8.67c-0.31-0.77-0.34-1.32,0.46-1.81c0.52-0.32,0.92-0.83,1.49-1.36
	c0.67,2.56,1.26,5,2.13,7.34c0.56,1.5,1.11,2.99,1.95,4.36c0.76,1.24,1.79,1.95,3.33,1.94c7.03-0.03,14.07,0.14,21.1-0.12
	c1.47-0.06,2.93-0.34,4.39-0.6c0.97-0.17,1.01-0.63,0.84-1.4c-0.5-2.35-1.13-4.66-2.03-6.88c-0.33-0.81-0.31-1.37,0.47-1.9
	c0.48-0.33,0.82-0.85,1.36-1.44c0.78,2.68,1.33,5.2,1.69,7.76c0.11,0.75,0.26,1.49,0.17,2.26c-0.25,2.3-1.32,3.72-3.74,4.19
	c-2.32,0.45-4.62,0.89-6.99,0.88c-5.6-0.01-11.19-0.02-16.79,0.01c-1.56,0.01-2.94-0.41-4-1.56c-0.5-0.54-0.89-0.44-1.43-0.15
	c-1.96,1.07-4.09,1.59-6.31,1.68c-3.73,0.15-5.21-1.56-4.62-5.23C359.98,128.05,360.05,127.44,360.36,126.87z"/>
<path class="st0" d="M356.49,133.25c-2.19-0.23-4.3-0.45-6.32-1.15c-2.65-0.93-3.7-2.85-2.88-5.55c0.81-2.67,2.36-4.87,4.57-6.59
	c0.57-0.44,1.2-0.78,1.92-0.93c1.75-0.36,2.78,0.35,3.03,2.12c0.08,0.55,0.12,1.11,0.1,1.67c-0.03,0.9-0.12,1.79-0.2,2.95
	c-0.56-0.75-0.31-1.34-0.3-1.89c0.04-2.43-1.07-3.15-3.22-1.98c-2.39,1.3-3.82,3.43-4.84,5.89c-0.26,0.61,0.06,0.74,0.48,0.95
	c1.99,0.99,4.16,1.37,6.3,1.86c1.34,0.31,2.38,0.87,2.58,2.39c0.12,0.92-0.17,1.74-0.57,2.53c-2.17,4.25-8.81,7.58-13.48,6.78
	c-2.28-0.39-3.98-1.98-4.4-4.32c-0.59-3.3,0.21-6.46,1.12-9.87c0.16,0.9,0.17,0.91,0,1.54c-0.44,1.63-0.73,3.28-0.73,4.96
	c0,2.73,1.39,4.42,4.05,5C348.24,140.59,354.39,137.57,356.49,133.25z"/>
<path class="st1" d="M279.54,107.97c2.88-6.12,2.04-12.34,0.79-18.67c2.4,0,4.75,0.01,7.1-0.01c0.55,0,0.61,0.37,0.75,0.75
	c1.08,3.15,0.76,6.2-0.63,9.17c-1.55,3.31-3.97,5.95-6.54,8.48C280.61,108.11,280.18,108.11,279.54,107.97z"/>
<path class="st1" d="M436.7,85.24c0,0.54,0,0.98,0,1.42c0,13.82,0,27.64,0.01,41.47c0,0.77-0.08,1.46-0.51,2.15
	c-0.61,0.97-0.66,2.12-0.69,3.24c-0.01,0.44,0,0.89-0.16,1.34c-0.39-0.57-0.31-1.19-0.33-1.79c-0.37-12.33-0.54-24.67-0.55-37.01
	c0-2.91-0.33-5.81-0.54-8.72c-0.04-0.59,0-0.95,0.67-1.14C435.27,85.99,435.9,85.61,436.7,85.24z"/>
<path class="st0" d="M360.54,100.48c-0.78,1.67-1.85,2.46-3.76,2.54c-3.47,0.15-6.77,1.12-9.62,3.23
	c-3.84,2.85-5.14,7.36-3.43,11.83c0.13,0.35,0.43,0.68,0.31,1.14c-2.27-2.39-2.18-8.73,0.2-12.18c2.63-3.81,6.63-5.3,11.14-6.22
	c-2.07-1.67-3.91-3.26-5.86-4.7c-1.79-1.31-3.32-1.13-4.98,0.32c-0.31,0.27-0.55,0.75-1.32,0.36c1.28-1.2,2.52-2.32,3.7-3.5
	c0.52-0.52,1-0.61,1.71-0.44c1.89,0.44,3.24,1.68,4.62,2.88c0.96,0.84,1.9,1.71,2.86,2.56C357.38,99.42,358.85,100.17,360.54,100.48
	z"/>
<path class="st0" d="M398.44,138.75c0.02,0.58-1.13,2.46-1.51,2.46c-0.22,0-2.67-1.75-2.67-1.91c0.01-0.22,1.53-2.53,1.68-2.55
	C396.54,136.69,398.42,138.2,398.44,138.75z"/>
<path class="st0" d="M352.7,149.1c-0.85-0.56-1.69-1.1-2.51-1.66c-0.21-0.14-0.07-0.35,0.04-0.53c0.23-0.37,0.45-0.75,0.67-1.13
	c0.76-1.33,0.76-1.33,2.09-0.54c1.51,0.89,1.52,2.76,0.02,3.73C352.91,149.02,352.81,149.05,352.7,149.1z"/>
<path class="st0" d="M387.02,112.93c0.01,0.51-1.17,2.46-1.51,2.48c-0.16,0.01-2.68-1.73-2.69-1.86c-0.02-0.25,1.53-2.62,1.72-2.63
	C385.15,110.89,387.01,112.4,387.02,112.93z"/>
<path class="st0" d="M403.78,138.79c-0.01,0.55-1.22,2.43-1.56,2.43c-0.19,0-2.66-1.76-2.66-1.9c0-0.27,1.58-2.56,1.77-2.56
	C402.03,136.78,403.79,138.23,403.78,138.79z"/>
<path class="st0" d="M348.91,146.74c-0.03,0.63-1.11,2.32-1.48,2.33c-0.29,0.01-2.64-1.69-2.64-1.91c0.01-0.38,1.53-2.54,1.77-2.52
	C347.44,144.74,348.95,146.09,348.91,146.74z"/>
<path class="st0" d="M352.25,84.94c0.8,0.57,2.01,0.72,2.31,1.74c0.31,1.05-0.66,1.79-1.16,2.61c-0.18,0.29-0.41,0.09-0.61-0.04
	c-0.66-0.43-1.32-0.88-1.98-1.31c-0.17-0.11-0.42-0.25-0.33-0.43c0.45-0.83,0.94-1.64,1.44-2.45
	C351.96,84.99,352.12,84.99,352.25,84.94z"/>
<path class="st0" d="M421.77,99.51c-0.95-2.19-2.42-3.9-5.17-3.7c0.01-0.86,0.67-1.49,0.63-2.35c-0.56,0.2-0.55,0.7-0.7,1.07
	c-1.08,2.7-2.08,5.44-3.19,8.12c-1.27,3.08-4.42,4.08-7.51,2.36c0.16-0.11,0.31-0.18,0.43-0.29c2.44-2.09,2.79-4.24,1.12-6.97
	c-0.55-0.89-1.22-1.68-2.04-2.33c-2.3-1.83-4.02-1.76-6.12,0.28c-1.96,1.9-3.55,4.11-5.19,6.28c-0.22,0.29-0.32,0.73-0.97,0.79
	c0.28-0.98,0.54-1.89,0.81-2.79c0.28-0.92,0.61-1.81,0.57-2.8c-0.11-2.47-0.2-4.95-0.28-7.42c-0.1-2.71-0.32-5.41-0.17-8.12
	c-0.24,0-0.48,0-0.72,0c-0.28,0.37-0.7,0.59-1.1,0.66c-1.07,0.17-1.16,0.78-1.04,1.69c0.32,2.45,0.61,4.91,0.84,7.38
	c0.37,3.94,0.58,7.88,0.67,11.84c0.03,1.21-0.95,2.53-1.86,2.52c-1.47-0.03-2.95-0.06-4.42-0.22c-1.48-0.16-1.57-0.27-0.99-1.67
	c1.1-2.69,0.65-5.46,0.87-8.49c-0.64,0.59-0.99,1.04-1.45,1.31c-0.87,0.52-1.02,1.15-0.76,2.1c0.33,1.23,0.56,2.5,0.7,3.76
	c0.28,2.7-0.21,3.18-2.59,3.17c-6.91-0.02-13.83,0.06-20.74,0.02c-1.68-0.01-3.73,0.39-4.23-2.22c-0.43,3.19,0.74,4.67,3.74,4.96
	c0.32,0.03,0.64,0.04,0.96,0.04c5.96,0,11.91,0.02,17.87,0c1.12,0,2.23-0.2,3.35-0.19c0.65,0,0.93-0.71,1.73-0.53
	c6,1.41,11.89,0.62,17.7-1.13c0.59-0.18,1.04-0.13,1.56,0.16c1.65,0.94,3.42,1.5,5.32,1.67c1.03,0.09,1.93-0.12,2.54-0.99
	c0.32-0.46,0.59-0.52,1.08-0.31c2.48,1.03,5.11,1.15,7.74,1.33c0.84,0.06,1.15-0.3,1.48-1C423.53,104.72,422.88,102.07,421.77,99.51
	z M397.33,105.37c-1.7,0.18-3.4,0.35-5.36,0.25c1.88-2.55,3.49-5.03,5.59-7.12c2.33-2.32,5.21-2.23,7.39,0.25
	c0.69,0.78,1.22,1.67,1.72,2.58c0.34,0.61,0.24,0.95-0.38,1.32C403.52,104.3,400.48,105.04,397.33,105.37z M421,105.68
	c-0.31-0.04-0.64-0.01-0.82-0.01c-2.12-0.17-4.09-0.4-6.01-1c-0.74-0.23-0.91-0.56-0.6-1.29c0.56-1.32,1.06-2.66,1.51-4.02
	c0.27-0.81,0.8-1.02,1.55-0.97c1.11,0.08,1.95,0.65,2.65,1.46c1.29,1.5,1.83,3.32,2.24,5.2C421.62,105.49,421.54,105.75,421,105.68z
	"/>
<path class="st1" d="M205.63,119.23c0-7.23-0.02-14.47,0.03-21.7c0.01-1.03-0.3-1.29-1.27-1.23c-1.31,0.08-2.64,0-3.96,0.03
	c-0.64,0.02-0.81-0.24-0.81-0.85c0-0.58,0.2-0.75,0.76-0.74c8.83,0.15,17.67-0.34,26.49,0.28c3.8,0.27,7.48,1.24,10.9,2.99
	c5.81,2.96,9.22,7.76,10.46,14.08c1.06,5.42,0.84,10.84-0.98,16.08c-2.86,8.23-8.86,12.93-17.23,14.79
	c-2.35,0.52-4.73,0.77-7.13,0.77c-7.4,0-14.79,0.01-22.19-0.01c-0.4,0-1.02,0.29-1.06-0.54c-0.03-0.6,0.03-0.98,0.8-0.94
	c1.24,0.06,2.48-0.06,3.72,0.04c1.15,0.09,1.54-0.18,1.52-1.45C205.59,133.62,205.63,126.42,205.63,119.23z M215.63,119.29
	c0,7.24,0.02,14.47-0.02,21.71c-0.01,0.95,0.16,1.35,1.21,1.27c1.43-0.1,2.88-0.05,4.32-0.02c7.02,0.12,11.89-3.18,14.43-9.59
	c3.38-8.55,3.51-17.33,0.65-26.04c-1.72-5.25-5.38-8.7-10.91-9.9c-2.76-0.59-5.57-0.34-8.36-0.44c-1.02-0.03-1.35,0.2-1.34,1.29
	C215.66,104.82,215.63,112.06,215.63,119.29z"/>
<path class="st2" d="M652.45-137.36c-112.7,1.41-225.39,2.83-338.09,4.24"/>
</svg>
