<svg width="53" height="54" viewBox="0 0 53 54" fill="none" xmlns="http://www.w3.org/2000/svg">
<g clip-path="url(#clip0_298_3724)">
<path fill-rule="evenodd" clip-rule="evenodd" d="M42.7246 17.4149C40.0761 14.6561 35.9136 13.2625 31.2326 13.2625C23.2314 13.2625 16.7451 19.7488 16.7451 27.75C16.7451 35.7513 23.2314 42.2375 31.2326 42.2375C35.4774 42.2375 39.9754 40.8784 42.9027 37.7995C39.5107 43.357 33.3899 47.0669 26.4026 47.0669C15.7343 47.0669 7.08594 38.4186 7.08594 27.7503C7.08594 17.082 15.7343 8.43359 26.4026 8.43359C33.2693 8.43359 39.2992 12.0165 42.7246 17.4149Z" fill="#BD2E27"/>
<circle cx="26.0775" cy="27.4271" r="23.8239" stroke="black" stroke-width="4.50722"/>
<path d="M35.8307 21.9551L35.6978 22.5031C35.5483 22.5087 35.302 22.5529 34.9588 22.636C34.6155 22.719 34.3664 22.8048 34.2114 22.8934C33.9734 23.0318 33.7769 23.2975 33.6219 23.6906C33.4724 24.0781 33.3257 24.5763 33.1818 25.1852L31.3953 33.7381H30.1805L25.6004 23.9065L24.1224 30.3336C24.0559 30.6214 24.0006 30.9121 23.9563 31.2055C23.912 31.4989 23.8899 31.7369 23.8899 31.9196C23.8899 32.1133 23.9092 32.2711 23.948 32.3929C23.9867 32.5092 24.0393 32.606 24.1058 32.6835C24.1999 32.7998 24.4351 32.9105 24.8116 33.0157C25.188 33.1209 25.4371 33.179 25.5589 33.1901L25.4344 33.7381H20.6016L20.7261 33.1901C20.9088 33.1735 21.1773 33.1209 21.5316 33.0323C21.8859 32.9382 22.1212 32.8496 22.2374 32.7666C22.4588 32.6171 22.6471 32.3763 22.8021 32.0442C22.9571 31.7065 23.1176 31.1667 23.2837 30.4249L24.604 24.7119C24.6427 24.5292 24.6704 24.3742 24.687 24.2469C24.7036 24.1141 24.7119 23.9923 24.7119 23.8816C24.7119 23.7487 24.6953 23.6241 24.6621 23.5079C24.6344 23.3861 24.5652 23.2588 24.4545 23.1259C24.2608 22.9045 24.0227 22.7522 23.7404 22.6692C23.4636 22.5806 23.2145 22.5253 22.993 22.5031L23.1259 21.9551H26.5055L30.9896 31.164L32.3431 25.2932C32.4095 24.9998 32.4649 24.7147 32.5092 24.4379C32.5534 24.1556 32.5756 23.9148 32.5756 23.7155C32.5756 23.5328 32.5562 23.3806 32.5175 23.2588C32.4842 23.1314 32.4317 23.0373 32.3597 22.9764C32.2268 22.8602 32.0026 22.7605 31.6871 22.6775C31.3715 22.5889 31.1114 22.5308 30.9065 22.5031L31.0394 21.9551H35.8307Z" fill="black"/>
<path d="M43.4214 21.9551L43.2968 22.5031C43.1418 22.5087 42.9481 22.5336 42.7156 22.5779C42.483 22.6221 42.3059 22.6637 42.1841 22.7024C41.9682 22.7744 41.8132 22.8879 41.7191 23.0429C41.625 23.1979 41.5558 23.364 41.5115 23.5411L39.5352 32.1189C39.5241 32.1632 39.5158 32.213 39.5103 32.2684C39.5048 32.3237 39.502 32.3708 39.502 32.4095C39.502 32.5258 39.5269 32.6282 39.5767 32.7168C39.6266 32.8053 39.7068 32.8856 39.8175 32.9576C39.9006 33.0074 40.05 33.0572 40.2659 33.107C40.4874 33.1569 40.6756 33.1845 40.8306 33.1901L40.706 33.7381H35.8151L35.9397 33.1901C36.0781 33.179 36.2746 33.1624 36.5292 33.1402C36.7839 33.1181 36.9638 33.0849 37.069 33.0406C37.2627 32.9686 37.4122 32.8635 37.5174 32.7251C37.6226 32.5867 37.6973 32.4151 37.7416 32.2102L38.7214 27.9587H33.1828L32.2279 32.1189C32.2168 32.1632 32.2085 32.2102 32.203 32.26C32.1975 32.3099 32.1947 32.3569 32.1947 32.4012C32.1947 32.5119 32.2196 32.6171 32.2694 32.7168C32.3248 32.8164 32.405 32.8967 32.5102 32.9576C32.5933 33.0074 32.7427 33.0572 32.9586 33.107C33.1801 33.1569 33.3683 33.1845 33.5233 33.1901L33.3987 33.7381H28.5078L28.6324 33.1901C28.7708 33.179 28.9673 33.1624 29.2219 33.1402C29.4766 33.1181 29.6565 33.0849 29.7617 33.0406C29.9554 32.9686 30.1049 32.8635 30.2101 32.7251C30.3153 32.5867 30.39 32.4151 30.4343 32.2102L32.4189 23.6241C32.43 23.5798 32.4383 23.5356 32.4438 23.4913C32.4493 23.4415 32.4521 23.3916 32.4521 23.3418C32.4521 23.22 32.4272 23.1148 32.3774 23.0263C32.3331 22.9377 32.25 22.8602 32.1283 22.7938C31.9954 22.7218 31.8293 22.6581 31.63 22.6028C31.4307 22.5474 31.2536 22.5142 31.0986 22.5031L31.2231 21.9551H36.1141L35.9895 22.5031C35.8345 22.5087 35.6407 22.5336 35.4082 22.5779C35.1757 22.6221 34.9986 22.6637 34.8768 22.7024C34.6609 22.7744 34.5059 22.8879 34.4118 23.0429C34.3177 23.1979 34.2485 23.364 34.2042 23.5411L33.3572 27.2529H38.8958L39.7262 23.6241C39.7373 23.5798 39.7456 23.5356 39.7511 23.4913C39.7566 23.4415 39.7594 23.3944 39.7594 23.3501C39.7594 23.2283 39.7345 23.1231 39.6847 23.0346C39.6404 22.9405 39.5574 22.8602 39.4356 22.7938C39.3027 22.7218 39.1366 22.6581 38.9373 22.6028C38.7381 22.5474 38.5609 22.5142 38.4059 22.5031L38.5305 21.9551H43.4214Z" fill="black"/>
</g>
<defs>
<clipPath id="clip0_298_3724">
<rect width="52.65" height="54" fill="white"/>
</clipPath>
</defs>
</svg>
